<svg width="14" height="18" viewBox="0 0 14 18" fill="#FD4646" xmlns="http://www.w3.org/2000/svg">
<path d="M2.08074 7.82992C2.06304 7.65329 2.20173 7.5 2.37925 7.5H11.7128C11.8915 7.5 12.0305 7.65526 12.011 7.83288L11.1375 15.7535C11.0592 16.463 10.4597 17 9.74591 17H4.26667C3.54755 17 2.94538 16.4552 2.87366 15.7396L2.08074 7.82992Z" fill="#FD4646" stroke="#FD4646" stroke-width="2" stroke-linecap="round"/>
<path d="M4.5 4.5H3.5V5.5H4.5V4.5ZM9.5 4.5V5.5H10.5V4.5H9.5ZM5.5 4.5V2.4H3.5V4.5H5.5ZM5.9 2H7.02024V0H5.9V2ZM7.02024 2H8.1V0H7.02024V2ZM8.5 2.4V4.5H10.5V2.4H8.5ZM4.5 5.5H9.5V3.5H4.5V5.5ZM8.1 2C8.32091 2 8.5 2.17909 8.5 2.4H10.5C10.5 1.07452 9.42548 0 8.1 0V2ZM5.5 2.4C5.5 2.17909 5.67909 2 5.9 2V0C4.57452 0 3.5 1.07452 3.5 2.4H5.5Z" fill="#FD4646"/>
<path d="M1.5 4.5L12.5 4.5" stroke="#FD4646" stroke-width="2" stroke-linecap="round"/>
</svg>
